<svg version="1.1" xmlns="http://www.w3.org/2000/svg" viewBox="0 0 427.6548615464568 142.59777136760763" width="427.6548615464568" height="142.59777136760763" class="excalidraw-svg"><!-- svg-source:excalidraw --><metadata></metadata><defs><style class="style-fonts">
      </style></defs><rect x="0" y="0" width="427.6548615464568" height="142.59777136760763" fill="#ffffff"></rect><g stroke-linecap="round"><g transform="translate(9.766430436102667 62.196260555088514) rotate(0 2.1165162429073803 25.225561382262967)"><path d="M1.11 -0.51 C1.91 8.25, 3.65 43.65, 4 52.27 M0.23 -1.82 C1.03 6.58, 3.18 41.3, 3.58 50.3" stroke="#1e1e1e" stroke-width="2" fill="none"></path></g></g><mask></mask><g stroke-linecap="round"><g transform="translate(14.766430436102667 58.196260555088514) rotate(0 39.59802659104113 -0.4218377472947026)"><path d="M-0.9 0.73 C12.02 0.93, 64.53 0.21, 77.94 -0.01 M0.83 0.07 C14.08 0.05, 67.06 -1.15, 80.1 -1.61" stroke="#1e1e1e" stroke-width="2" fill="none"></path></g></g><mask></mask><g stroke-linecap="round"><g transform="translate(93.76643043610267 58.196260555088514) rotate(0 2.2778253684169556 23.206482119766292)"><path d="M0.34 -0.53 C0.99 7.24, 3.07 38.66, 3.65 46.5 M-0.15 0.39 C0.7 8.21, 4.12 39.2, 4.7 46.94" stroke="#1e1e1e" stroke-width="2" fill="none"></path></g></g><mask></mask><g stroke-linecap="round"><g transform="translate(287.76643043610267 61.196260555088514) rotate(0 21.215046798833644 34.82402649892029)"><path d="M0.25 0.49 C7.52 12.07, 36.57 58.33, 43.51 69.94 M-1.08 -0.3 C6.1 10.92, 35.28 56.85, 42.83 68.32" stroke="#1e1e1e" stroke-width="2" fill="none"></path></g></g><mask></mask><g stroke-linecap="round"><g transform="translate(329.76643043610267 131.19626055508851) rotate(0 43.52169276370201 -59.8973748712847)"><path d="M-0.85 -0.8 C13.26 -21.09, 71.31 -101.18, 85.8 -121.2 M0.91 1.4 C15.26 -18.76, 73.29 -99.61, 87.89 -119.76" stroke="#1e1e1e" stroke-width="2" fill="none"></path></g></g><mask></mask></svg>